<svg xmlns="http://www.w3.org/2000/svg" viewBox="0 0 251.51 284.83"><defs><style>.a{fill:blue;stroke:blue;stroke-miterlimit:10;}.b{fill:#fff;}</style></defs><path class="a" d="M469.08,352.27c4.13,7.14,8.15,14.1,12.21,21.15l-70.74,40.84q-6.15-10.63-12.23-21.19l7.09-4.09c2.73,4.74,5.41,9.38,8.14,14.1l56.59-32.67L462,356.35l7-4Z" transform="translate(-230.46 -130.11)"/><path class="a" d="M476.14,348.14l-7.08,4.09,0,0-.06,0-12.26-21.24c2.4-1.39,4.67-2.71,6.95-4a3.48,3.48,0,0,1,.58.57C468.21,334.4,472.13,341.19,476.14,348.14Z" transform="translate(-230.46 -130.11)"/><path class="a" d="M470.83,322.93l-7.12,4.1a4.43,4.43,0,0,0-.33-.88L435.63,278a3.73,3.73,0,0,0-.33-.48l7-4Z" transform="translate(-230.46 -130.11)"/><path class="a" d="M463.71,327v0h0Z" transform="translate(-230.46 -130.11)"/><path class="a" d="M463.72,327.05h0l0,0Z" transform="translate(-230.46 -130.11)"/><path class="a" d="M435.28,277.52l0,0,0,0Z" transform="translate(-230.46 -130.11)"/><path class="a" d="M435.28,277.52v.05l0,0Z" transform="translate(-230.46 -130.11)"/><path class="a" d="M431.3,270.7l3.95,6.84-6.91,4c-1.31-2.26-2.6-4.5-3.94-6.83C426.66,273.39,428.9,272.1,431.3,270.7Z" transform="translate(-230.46 -130.11)"/><path class="a" d="M429.34,299.82l-7,4.05q-8.1-14-16.22-28.08L420,267.74l4,6.88-6.91,4Z" transform="translate(-230.46 -130.11)"/><path class="a" d="M406.08,275.75a.08.08,0,0,1,0,0l0,0Z" transform="translate(-230.46 -130.11)"/><path class="a" d="M406.08,275.75l0,.06a.08.08,0,0,1,0,0Z" transform="translate(-230.46 -130.11)"/><path class="a" d="M406,275.77l-9,5.11c-1.69,1-3.36,1.94-5.14,3,4.1,7.1,8.13,14.07,12.19,21.12l-7,4q-8.1-14-16.21-28.09L402,268.72C403.34,271.09,404.68,273.43,406,275.77Z" transform="translate(-230.46 -130.11)"/><path class="a" d="M398.31,393.05v0h0Z" transform="translate(-230.46 -130.11)"/><polygon class="a" points="167.85 262.96 167.84 262.97 167.84 262.96 167.85 262.96"/><path class="a" d="M398.31,393.05v0h0Z" transform="translate(-230.46 -130.11)"/><path class="a" d="M398,392.4a4.11,4.11,0,0,1,.26.66l-6.91,4L383.26,383h0l6.86-4a5.51,5.51,0,0,1,.59.71Z" transform="translate(-230.46 -130.11)"/><path class="a" d="M383.26,383h0l-7.1,4.1c-.9-1.56-1.68-2.92-2.47-4.27-1.68-2.9-3.38-5.79-5.06-8.69a9.44,9.44,0,0,1-.55-1.32l6.93-4c2.79,4.82,5.47,9.46,8.2,14.2Z" transform="translate(-230.46 -130.11)"/><path class="a" d="M382.91,317.19l-7.08,4.08q-18.3-31.72-36.62-63.43l7-4L362.48,282l14-8.12c1.38,2.4,2.69,4.67,4.07,7.05l-14,8.06Z" transform="translate(-230.46 -130.11)"/><path class="a" d="M369.22,342.49l.64,1.11-7,4-4-7-7,4c-1.4-2.43-2.78-4.8-4.15-7.17l6.91-4L317.92,270l6.88-4a8.82,8.82,0,0,1,.81,1Z" transform="translate(-230.46 -130.11)"/><path class="a" d="M368.07,372.78s0,0,0,0h0Z" transform="translate(-230.46 -130.11)"/><path class="a" d="M368.07,372.78v0l0,0Z" transform="translate(-230.46 -130.11)"/><path class="a" d="M362.08,362.68q3,5.06,6,10.11c-2.34,1.35-4.68,2.71-7.16,4.13-2.65-4.58-5.32-9.22-8.07-14l0-.07,7.07-4.08C360.64,360.2,361.36,361.45,362.08,362.68Z" transform="translate(-230.46 -130.11)"/><path class="a" d="M352.77,362.88l0,.07-7.21,4.16-4-6.92,4.47-2.79c.81-.5,1.64-1,2.59-1.5l4.05,7Z" transform="translate(-230.46 -130.11)"/><path class="a" d="M347.68,337.47a0,0,0,0,1,0,0h0v0Z" transform="translate(-230.46 -130.11)"/><path class="a" d="M347.67,337.49v0Z" transform="translate(-230.46 -130.11)"/><path class="a" d="M347.66,337.49c-.89.56-1.78,1.15-2.7,1.69-3.78,2.2-7.57,4.37-11.49,6.64l.71,1.23q3.4,5.91,6.81,11.81a12,12,0,0,1,.59,1.33c-1.73.94-3.47,1.87-5.2,2.82-.54.29-1.07.61-1.71,1l-12.2-21.12,21.22-12.25C345,333,346.34,335.23,347.66,337.49Z" transform="translate(-230.46 -130.11)"/><path class="a" d="M341.6,360.19h0Z" transform="translate(-230.46 -130.11)"/><path class="a" d="M339.19,257.8l0,0,0,0Z" transform="translate(-230.46 -130.11)"/><path class="a" d="M339.19,257.8v.06l0,0Z" transform="translate(-230.46 -130.11)"/><path class="a" d="M339.16,257.82l-13,7.42c-.45.26-.93.49-1.39.75-.49-1-.94-2.05-1.48-3.05-.72-1.33-1.51-2.62-2.29-4l14.07-8.12Z" transform="translate(-230.46 -130.11)"/><path class="a" d="M324.83,266l0,0v0h0Z" transform="translate(-230.46 -130.11)"/><path class="a" d="M324.83,266h0Z" transform="translate(-230.46 -130.11)"/><rect class="a" x="36.04" y="65.39" width="206" height="206" rx="103"/><path class="b" d="M461.42,356.16l8.12,14.06L413,402.89c-2.73-4.72-5.41-9.36-8.14-14.1l-7.09,4.09v0h0a4.11,4.11,0,0,0-.26-.66l-7.32-12.68a5.51,5.51,0,0,0-.59-.71l-6.86,4-.05,0c-2.73-4.74-5.41-9.38-8.2-14.2l-6.93,4s0,0,0,0h0q-3-5.06-6-10.11c-.72-1.23-1.44-2.48-2.24-3.88l-7.07,4.08-.05,0-4.05-7c-.95.54-1.78,1-2.59,1.5L341,360h0a12,12,0,0,0-.59-1.33q-3.39-5.91-6.81-11.81l-.71-1.23c3.92-2.27,7.71-4.44,11.49-6.64.92-.54,1.81-1.13,2.7-1.69v0h0c1.37,2.37,2.75,4.74,4.15,7.17l7-4,4,7,7-4-.64-1.11L325,266.87a8.82,8.82,0,0,0-.81-1l0,0h0c.46-.26.94-.49,1.39-.75l12.95-7.42a.08.08,0,0,0,0,0l0,0q18.31,31.73,36.62,63.43l7.08-4.08L366,288.79l14-8.06h.26q8.13,14.07,16.21,28.09l7-4c-4.06-7-8.09-14-12.19-21.12,1.78-1,3.45-2,5.14-3l9-5.11,0,0,0,0q8.12,14.06,16.22,28.08l7-4.05L416.5,278.42l6.91-4,.39.07c1.34,2.33,2.63,4.57,3.94,6.83l6.91-4,0,0,0,0a3.73,3.73,0,0,1,.33.48L462.78,326a4.43,4.43,0,0,1,.33.88h0l0,0c-2.28,1.3-4.55,2.62-6.95,4l12.26,21.24Z" transform="translate(-230.46 -130.11)"/><path class="b" d="M238.58,176.84l-8.12-14.06,56.59-32.67c2.73,4.72,5.41,9.36,8.14,14.1l7.09-4.09v0h0a4.11,4.11,0,0,0,.26.66l7.32,12.68a5.51,5.51,0,0,0,.59.71l6.86-4,.05,0c2.73,4.74,5.41,9.38,8.2,14.2l6.93-4s0,0,0,0h0q3,5.06,6,10.11c.72,1.23,1.44,2.48,2.24,3.88l7.07-4.08.05,0,4.05,7c.95-.54,1.78-1,2.59-1.5,1.49-.92,3-1.86,4.47-2.79h0a12,12,0,0,0,.59,1.33q3.39,5.91,6.81,11.81l.71,1.23c-3.92,2.27-7.71,4.44-11.49,6.64-.92.54-1.81,1.13-2.7,1.69v0h0c-1.37-2.37-2.75-4.74-4.15-7.17l-7,4-4-7-7,4.05.64,1.11L375,266.13a8.82,8.82,0,0,0,.81,1l0,0h0c-.46.26-.94.49-1.39.75l-12.95,7.42a.08.08,0,0,0,0,0l0,0q-18.31-31.73-36.62-63.43L317.69,216,334,244.21l-14,8.06h-.26q-8.13-14.07-16.21-28.09l-7,4c4.06,7.05,8.09,14,12.19,21.12-1.78,1-3.45,2-5.14,3l-9,5.11,0,0,0,0q-8.12-14.05-16.22-28.08l-7,4.05,12.24,21.21-6.91,4-.39-.07c-1.34-2.33-2.63-4.57-3.94-6.83l-6.91,4,0,0,0,0a3.73,3.73,0,0,1-.33-.48L237.22,207a4.43,4.43,0,0,1-.33-.88h0l0,0c2.28-1.3,4.55-2.62,7-4l-12.26-21.24Z" transform="translate(-230.46 -130.11)"/></svg>