<?xml version="1.0" encoding="UTF-8"?>
<!DOCTYPE svg PUBLIC "-//W3C//DTD SVG 1.1//EN" "http://www.w3.org/Graphics/SVG/1.1/DTD/svg11.dtd">
<svg version="1.1" xmlns="http://www.w3.org/2000/svg" xmlns:xlink="http://www.w3.org/1999/xlink" x="0" y="0" width="178.551" height="185.018" viewBox="0, 0, 178.551, 185.018">
  <g id="Layer_1" transform="translate(-271.449, -5441.981)">
    <path d="M430.25,5558.669 C425.523,5543.737 390.923,5541.374 352.97,5553.39 C315.018,5565.406 288.084,5587.251 292.812,5602.183 C297.539,5617.115 332.139,5619.479 370.092,5607.462 C408.049,5595.447 434.982,5573.603 430.255,5558.669 M448.812,5554.535 C442.786,5535.502 398.688,5532.491 350.314,5547.805 C301.94,5563.122 267.61,5590.966 273.636,5609.998 C279.661,5629.03 323.761,5632.041 372.134,5616.726 C420.51,5601.41 454.841,5573.565 448.814,5554.536 M361.336,5443.647 C361.336,5443.647 367.438,5445.776 366.911,5451.738 C366.385,5457.702 362.177,5468.925 357.967,5468.925 C353.76,5468.925 351.001,5462.265 352.005,5452.089 C353.045,5441.569 361.335,5443.648 361.335,5443.648 M330.506,5450.731 C330.506,5450.731 344.279,5471.214 354.168,5473.687 C368.052,5477.157 404.67,5465.211 404.67,5465.211 L376.14,5483.041 C376.14,5483.041 365.116,5488.517 367.588,5504.057 C370.06,5519.597 375.25,5536 375.25,5536 C375.25,5536 360,5541.75 359,5540.75 C351.574,5533.322 346.045,5540.08 346.045,5540.08 C346.045,5540.08 343.25,5541.75 342.25,5545.721 C342.25,5545.721 332.122,5549.424 332.197,5547.5 C332.817,5531.646 342.586,5489.91 341.807,5487.46 C334.475,5464.384 333.497,5461.358 333.497,5461.358 L330.506,5450.732 z M379.835,5551 C382.307,5566.54 391.164,5591.17 391.164,5591.17 C391.164,5591.17 379.73,5565.75 369.98,5553.25 z M339.175,5562.902 C339.175,5562.902 337.336,5568.152 333.991,5579.25 C333.991,5579.25 332.197,5570.25 332.925,5564.652 z" fill-opacity="0" stroke="#000000" stroke-width="1"/>
  </g>
</svg>
